<mxfile host="Electron" modified="2024-05-19T13:13:28.450Z" agent="Mozilla/5.0 (Windows NT 10.0; Win64; x64) AppleWebKit/537.36 (KHTML, like Gecko) draw.io/24.2.5 Chrome/120.0.6099.109 Electron/28.1.0 Safari/537.36" etag="2vqd5UF_MFOPoPHricvH" version="24.2.5" type="device" pages="2">
  <diagram name="prerequisites" id="TLPtuCNs7ykybdBzxtyQ">
    <mxGraphModel dx="1434" dy="836" grid="1" gridSize="10" guides="1" tooltips="1" connect="1" arrows="1" fold="1" page="1" pageScale="1" pageWidth="827" pageHeight="1169" math="0" shadow="0">
      <root>
        <mxCell id="0" />
        <mxCell id="1" parent="0" />
        <mxCell id="ZptklFR3sbPgUG_MG5CR-19" value="" style="rounded=1;whiteSpace=wrap;html=1;dashed=1;" parent="1" vertex="1">
          <mxGeometry x="280" y="300" width="410" height="350" as="geometry" />
        </mxCell>
        <mxCell id="ZptklFR3sbPgUG_MG5CR-1" value="Backend&lt;div&gt;&lt;i&gt;&amp;lt;&amp;lt;API Management&amp;gt;&amp;gt;&lt;/i&gt;&lt;br&gt;&lt;/div&gt;" style="image;aspect=fixed;html=1;points=[];align=center;fontSize=12;image=img/lib/azure2/app_services/API_Management_Services.svg;imageBackground=default;fontStyle=0" parent="1" vertex="1">
          <mxGeometry x="570" y="345" width="65" height="60" as="geometry" />
        </mxCell>
        <mxCell id="ZptklFR3sbPgUG_MG5CR-11" value="&lt;span style=&quot;font-style: italic;&quot;&gt;Granted role:&lt;/span&gt;&lt;div style=&quot;font-style: italic;&quot;&gt;Key Vault Secrets User&lt;/div&gt;" style="edgeStyle=orthogonalEdgeStyle;rounded=0;orthogonalLoop=1;jettySize=auto;html=1;" parent="1" source="4cbjpoUYbLAucDH9f_kE-2" target="ZptklFR3sbPgUG_MG5CR-2" edge="1">
          <mxGeometry x="0.1538" relative="1" as="geometry">
            <Array as="points" />
            <mxPoint x="360" y="450" as="sourcePoint" />
            <mxPoint as="offset" />
          </mxGeometry>
        </mxCell>
        <mxCell id="ZptklFR3sbPgUG_MG5CR-18" value="Resource group" style="image;sketch=0;aspect=fixed;html=1;points=[];align=center;fontSize=12;image=img/lib/mscae/ResourceGroup.svg;imageBackground=default;" parent="1" vertex="1">
          <mxGeometry x="450" y="269" width="50" height="40" as="geometry" />
        </mxCell>
        <mxCell id="4cbjpoUYbLAucDH9f_kE-3" value="calls&lt;div&gt;(using mTLS)&lt;/div&gt;" style="edgeStyle=orthogonalEdgeStyle;rounded=0;orthogonalLoop=1;jettySize=auto;html=1;fontStyle=2" edge="1" parent="1" source="4cbjpoUYbLAucDH9f_kE-2" target="ZptklFR3sbPgUG_MG5CR-1">
          <mxGeometry x="0.1351" relative="1" as="geometry">
            <mxPoint x="385" y="375" as="sourcePoint" />
            <mxPoint as="offset" />
          </mxGeometry>
        </mxCell>
        <mxCell id="4cbjpoUYbLAucDH9f_kE-2" value="Client&lt;div&gt;&lt;i&gt;&amp;lt;&amp;lt;API Management&amp;gt;&amp;gt;&lt;/i&gt;&lt;/div&gt;" style="image;aspect=fixed;html=1;points=[];align=center;fontSize=12;image=img/lib/azure2/app_services/API_Management_Services.svg;imageBackground=default;" vertex="1" parent="1">
          <mxGeometry x="327.5" y="345" width="65" height="60" as="geometry" />
        </mxCell>
        <mxCell id="4cbjpoUYbLAucDH9f_kE-5" value="Granted role:&lt;div&gt;Key Vault Administrator&lt;/div&gt;" style="rounded=0;orthogonalLoop=1;jettySize=auto;html=1;fontStyle=2" edge="1" parent="1" source="4cbjpoUYbLAucDH9f_kE-4" target="ZptklFR3sbPgUG_MG5CR-2">
          <mxGeometry x="-0.2531" relative="1" as="geometry">
            <mxPoint x="360" y="630" as="targetPoint" />
            <mxPoint as="offset" />
          </mxGeometry>
        </mxCell>
        <mxCell id="OEPE7iLRIupDwSOopxZa-1" value="calls&lt;div&gt;(using TLS)&lt;/div&gt;" style="rounded=0;orthogonalLoop=1;jettySize=auto;html=1;fontStyle=2" edge="1" parent="1" source="4cbjpoUYbLAucDH9f_kE-4" target="4cbjpoUYbLAucDH9f_kE-2">
          <mxGeometry relative="1" as="geometry" />
        </mxCell>
        <mxCell id="4cbjpoUYbLAucDH9f_kE-4" value="You" style="verticalLabelPosition=bottom;html=1;verticalAlign=top;align=center;strokeColor=none;fillColor=#00BEF2;shape=mxgraph.azure.user;" vertex="1" parent="1">
          <mxGeometry x="110" y="450" width="47.5" height="50" as="geometry" />
        </mxCell>
        <mxCell id="ZptklFR3sbPgUG_MG5CR-2" value="Key Vault" style="image;aspect=fixed;html=1;points=[];align=center;fontSize=12;image=img/lib/azure2/security/Key_Vaults.svg;imageBackground=default;" parent="1" vertex="1">
          <mxGeometry x="326" y="535" width="68" height="68" as="geometry" />
        </mxCell>
      </root>
    </mxGraphModel>
  </diagram>
  <diagram name="Copy of prerequisites" id="AOTv5ZKaftlZWSLOnXPB">
    <mxGraphModel dx="1434" dy="836" grid="1" gridSize="10" guides="1" tooltips="1" connect="1" arrows="1" fold="1" page="1" pageScale="1" pageWidth="827" pageHeight="1169" math="0" shadow="0">
      <root>
        <mxCell id="kwqVvzjyvQB4K2FotLQI-0" />
        <mxCell id="kwqVvzjyvQB4K2FotLQI-1" parent="kwqVvzjyvQB4K2FotLQI-0" />
        <mxCell id="kwqVvzjyvQB4K2FotLQI-2" value="" style="rounded=1;whiteSpace=wrap;html=1;dashed=1;" vertex="1" parent="kwqVvzjyvQB4K2FotLQI-1">
          <mxGeometry x="260" y="210" width="430" height="470" as="geometry" />
        </mxCell>
        <mxCell id="kwqVvzjyvQB4K2FotLQI-3" value="" style="rounded=1;whiteSpace=wrap;html=1;dashed=1;" vertex="1" parent="kwqVvzjyvQB4K2FotLQI-1">
          <mxGeometry x="280" y="280" width="160" height="170" as="geometry" />
        </mxCell>
        <mxCell id="kwqVvzjyvQB4K2FotLQI-4" value="Backend&lt;div&gt;&lt;i&gt;&amp;lt;&amp;lt;API Management&amp;gt;&amp;gt;&lt;/i&gt;&lt;br&gt;&lt;/div&gt;" style="image;aspect=fixed;html=1;points=[];align=center;fontSize=12;image=img/lib/azure2/app_services/API_Management_Services.svg;imageBackground=default;fontStyle=0" vertex="1" parent="kwqVvzjyvQB4K2FotLQI-1">
          <mxGeometry x="570" y="345" width="65" height="60" as="geometry" />
        </mxCell>
        <mxCell id="kwqVvzjyvQB4K2FotLQI-5" value="Key Vault" style="image;aspect=fixed;html=1;points=[];align=center;fontSize=12;image=img/lib/azure2/security/Key_Vaults.svg;" vertex="1" parent="kwqVvzjyvQB4K2FotLQI-1">
          <mxGeometry x="326" y="570" width="68" height="68" as="geometry" />
        </mxCell>
        <mxCell id="kwqVvzjyvQB4K2FotLQI-6" value="&lt;span style=&quot;font-style: italic;&quot;&gt;Granted role:&lt;/span&gt;&lt;div style=&quot;font-style: italic;&quot;&gt;Key Vault Secrets User&lt;/div&gt;" style="edgeStyle=orthogonalEdgeStyle;rounded=0;orthogonalLoop=1;jettySize=auto;html=1;" edge="1" parent="kwqVvzjyvQB4K2FotLQI-1" source="kwqVvzjyvQB4K2FotLQI-3" target="kwqVvzjyvQB4K2FotLQI-5">
          <mxGeometry relative="1" as="geometry">
            <Array as="points">
              <mxPoint x="360" y="564" />
            </Array>
            <mxPoint x="360" y="530" as="sourcePoint" />
          </mxGeometry>
        </mxCell>
        <mxCell id="kwqVvzjyvQB4K2FotLQI-7" value="Resource group" style="image;sketch=0;aspect=fixed;html=1;points=[];align=center;fontSize=12;image=img/lib/mscae/ResourceGroup.svg;imageBackground=default;" vertex="1" parent="kwqVvzjyvQB4K2FotLQI-1">
          <mxGeometry x="450" y="180" width="50" height="40" as="geometry" />
        </mxCell>
        <mxCell id="kwqVvzjyvQB4K2FotLQI-8" value="calls&lt;div&gt;(using mTLS)&lt;/div&gt;" style="edgeStyle=orthogonalEdgeStyle;rounded=0;orthogonalLoop=1;jettySize=auto;html=1;fontStyle=2" edge="1" parent="kwqVvzjyvQB4K2FotLQI-1" source="kwqVvzjyvQB4K2FotLQI-9" target="kwqVvzjyvQB4K2FotLQI-4">
          <mxGeometry x="0.1351" relative="1" as="geometry">
            <mxPoint as="offset" />
          </mxGeometry>
        </mxCell>
        <mxCell id="kwqVvzjyvQB4K2FotLQI-9" value="Backend API" style="shape=image;verticalLabelPosition=bottom;labelBackgroundColor=default;verticalAlign=top;aspect=fixed;imageAspect=0;image=data:image/svg+xml,PHN2ZyB4bWxucz0iaHR0cDovL3d3dy53My5vcmcvMjAwMC9zdmciIHZpZXdCb3g9IjAgMCA1MCA1MCI+JiN4YTsgICAgPHBhdGggZmlsbD0iIzU3YTMwMCIgZD0iTTAgMjAuODRoMTkuNTV2OC4zMkgweiIvPiYjeGE7ICAgIDxwYXRoIGZpbGw9IiM1OWI0ZDkiIGQ9Ik00MS42OCAyMC44NGgxMC4yNnY4LjMySDQxLjY4eiIvPiYjeGE7ICAgIDxjaXJjbGUgZmlsbD0iIzU3YTMwMCIgcj0iOS40NiIgY3k9IjI1IiBjeD0iMjAuMTIiLz4mI3hhOyAgICA8cGF0aCBmaWxsPSIjNTliNGQ5IiBkPSJNMjAuMTIuNDh2MTAuOTZhMSAxIDAgMCAxIDAgMjcuMTR2MTAuOTZhMSAxIDAgMCAwIDAtNDkuMDVaIi8+JiN4YTs8L3N2Zz4=;fontStyle=0" vertex="1" parent="kwqVvzjyvQB4K2FotLQI-1">
          <mxGeometry x="335" y="350" width="50" height="50" as="geometry" />
        </mxCell>
        <mxCell id="kwqVvzjyvQB4K2FotLQI-10" value="Client&lt;div&gt;&lt;i&gt;&amp;lt;&amp;lt;API Management&amp;gt;&amp;gt;&lt;/i&gt;&lt;/div&gt;" style="image;aspect=fixed;html=1;points=[];align=center;fontSize=12;image=img/lib/azure2/app_services/API_Management_Services.svg;imageBackground=default;" vertex="1" parent="kwqVvzjyvQB4K2FotLQI-1">
          <mxGeometry x="327.5" y="240" width="65" height="60" as="geometry" />
        </mxCell>
        <mxCell id="kwqVvzjyvQB4K2FotLQI-11" value="Granted role:&lt;div&gt;Key Vault Administrator&lt;/div&gt;" style="edgeStyle=orthogonalEdgeStyle;rounded=0;orthogonalLoop=1;jettySize=auto;html=1;fontStyle=2" edge="1" parent="kwqVvzjyvQB4K2FotLQI-1" source="kwqVvzjyvQB4K2FotLQI-12" target="kwqVvzjyvQB4K2FotLQI-5">
          <mxGeometry x="-0.3046" relative="1" as="geometry">
            <mxPoint x="1" as="offset" />
          </mxGeometry>
        </mxCell>
        <mxCell id="kwqVvzjyvQB4K2FotLQI-12" value="You" style="verticalLabelPosition=bottom;html=1;verticalAlign=top;align=center;strokeColor=none;fillColor=#00BEF2;shape=mxgraph.azure.user;" vertex="1" parent="kwqVvzjyvQB4K2FotLQI-1">
          <mxGeometry x="336.25" y="750" width="47.5" height="50" as="geometry" />
        </mxCell>
      </root>
    </mxGraphModel>
  </diagram>
</mxfile>
